<svg width="32" height="32" viewBox="0 0 32 32" fill="none" xmlns="http://www.w3.org/2000/svg">
<path d="M8.56667 3.5C8.16134 3.45733 7.83184 3.66958 7.62917 3.98958C7.4265 4.29891 7.40434 4.70475 7.575 5.03541L8.04584 5.98541C5.09117 8.33208 3.20209 11.9487 3.20209 16.0021C3.20209 17.0901 3.3505 18.1351 3.59584 19.1271C3.72384 19.7031 4.30109 20.0655 4.87709 19.9375C5.45309 19.8095 5.8155 19.2322 5.6875 18.6562C5.67684 18.6456 5.67734 18.6255 5.66667 18.6042C5.45334 17.7615 5.33542 16.8981 5.33542 16.0021C5.33542 12.7807 6.76575 9.89991 9.02709 7.94791L9.31459 8.53541C9.37859 8.67408 9.485 8.78966 9.59167 8.875C9.75167 9.01366 9.95334 9.0995 10.1667 9.12083C10.1987 9.1315 10.2305 9.13125 10.2625 9.13125C10.5932 9.13125 10.914 8.97083 11.1167 8.70416L12.2688 7.17916L13.5708 5.4625C13.9868 5.0465 13.9764 4.37433 13.5604 3.95833C13.3684 3.76633 13.1125 3.66066 12.8458 3.65H12.8333L8.56667 3.5ZM19.1708 3.65C18.5842 3.66066 18.1143 4.14041 18.125 4.72708C18.125 5.20708 18.4455 5.622 18.9042 5.75C22.7442 6.838 25.7093 10.007 26.4667 13.975L25.8042 13.9417C25.6548 13.931 25.5176 13.9529 25.3896 14.0062C25.1869 14.0809 25.0051 14.1976 24.8771 14.3896C24.6638 14.6882 24.6218 15.0732 24.7604 15.4146L25.5167 17.2062L26.3167 19.1042C26.4233 19.6802 26.9886 20.0548 27.5646 19.9375C27.8633 19.8842 28.1194 19.7018 28.2688 19.4458L28.2792 19.4354L28.2896 19.4146L30.5417 15.8083C30.7443 15.4883 30.7644 15.0952 30.5938 14.7646C30.4124 14.4232 30.0817 14.2088 29.7083 14.1875L28.6521 14.1125C27.9161 9.10983 24.2789 5.04633 19.4896 3.69166C19.3936 3.65966 19.2882 3.65 19.1708 3.65ZM24.2125 23.3375C23.9392 23.3295 23.6613 23.4244 23.4479 23.6271C23.4373 23.6271 23.4378 23.6393 23.4271 23.65C21.5071 25.5167 18.8928 26.6687 16.0021 26.6687C14.7754 26.6687 13.6133 26.4548 12.5146 26.0708L12.8771 25.5271C12.9624 25.4097 13.0055 25.2699 13.0375 25.1312C13.0695 24.9179 13.0585 24.6943 12.9625 24.4917C12.8132 24.161 12.4918 23.926 12.1292 23.8833L10.2 23.6375L8.11875 23.3708H8.10834C8.01234 23.3495 7.90667 23.3289 7.8 23.3396C7.21334 23.3502 6.7435 23.83 6.75417 24.4167C6.75417 24.5873 6.79592 24.759 6.88125 24.9083V24.9187L8.8875 28.6937C9.06884 29.0244 9.39934 29.2391 9.78334 29.2604H9.8375C10.1895 29.2604 10.5203 29.0778 10.7229 28.7792L11.3083 27.8937C12.759 28.4697 14.3381 28.8021 16.0021 28.8021C19.4581 28.8021 22.615 27.415 24.9083 25.175C25.3457 24.7697 25.3574 24.0975 24.9521 23.6708C24.7548 23.4575 24.4858 23.3455 24.2125 23.3375Z" fill="url(#paint0_linear_18105_27306)"/>
<defs>
<linearGradient id="paint0_linear_18105_27306" x1="16.9556" y1="3.49455" x2="16.9556" y2="29.2604" gradientUnits="userSpaceOnUse">
<stop offset="0.2" stop-color="#5FC3EB"/>
<stop offset="0.8" stop-color="#8DD4F1"/>
</linearGradient>
</defs>
</svg>
